HIERARCHY
ROOT joint_0
{
	OFFSET 0.000000 0.000000 0.000000
	CHANNELS 6 Xposition Yposition Zposition Zrotation Yrotation Xrotation 
	JOINT joint_1
	{
		OFFSET 0.511002 1.944000 108.288940
		CHANNELS 3 Zrotation Yrotation Xrotation
		JOINT joint_2
		{
			OFFSET -9.074005 1.512993 98.440063
			CHANNELS 3 Zrotation Yrotation Xrotation
			JOINT joint_3
			{
				OFFSET -8.590996 1.815002 98.366943
				CHANNELS 3 Zrotation Yrotation Xrotation
				JOINT joint_4
				{
					OFFSET 2.489998 3.531998 136.462036
					CHANNELS 3 Zrotation Yrotation Xrotation
					JOINT joint_5
					{
						OFFSET 22.708000 2.955002 80.357056
						CHANNELS 3 Zrotation Yrotation Xrotation
						End Site
						{
							OFFSET 0.000000 0.000000 0.000000
						}
					}
				}
				JOINT joint_6
				{
					OFFSET 2.860001 -27.684998 77.234009
					CHANNELS 3 Zrotation Yrotation Xrotation
					JOINT joint_7
					{
						OFFSET 5.449997 -131.244003 -18.851929
						CHANNELS 3 Zrotation Yrotation Xrotation
						JOINT joint_8
						{
							OFFSET 35.757000 -24.661995 -264.074097
							CHANNELS 3 Zrotation Yrotation Xrotation
							JOINT joint_9
							{
								OFFSET 49.392001 -1.747002 -239.960938
								CHANNELS 3 Zrotation Yrotation Xrotation
								End Site
								{
									OFFSET 0.000000 0.000000 0.000000
								}
							}
						}
					}
				}
				JOINT joint_10
				{
					OFFSET -0.127998 31.625000 75.753052
					CHANNELS 3 Zrotation Yrotation Xrotation
					JOINT joint_11
					{
						OFFSET -5.618004 131.132996 -19.557007
						CHANNELS 3 Zrotation Yrotation Xrotation
						JOINT joint_12
						{
							OFFSET 46.488998 30.127991 -261.826050
							CHANNELS 3 Zrotation Yrotation Xrotation
							JOINT joint_13
							{
								OFFSET 66.021003 0.474030 -235.934937
								CHANNELS 3 Zrotation Yrotation Xrotation
								End Site
								{
									OFFSET 0.000000 0.000000 0.000000
								}
							}
						}
					}
				}
			}
		}
	}
	JOINT joint_14
	{
		OFFSET 15.887001 -78.871004 -94.561035
		CHANNELS 3 Zrotation Yrotation Xrotation
		JOINT joint_15
		{
			OFFSET -4.133003 6.714001 -473.615967
			CHANNELS 3 Zrotation Yrotation Xrotation
			JOINT joint_16
			{
				OFFSET -19.541000 5.340000 -399.613007
				CHANNELS 3 Zrotation Yrotation Xrotation
				JOINT joint_17
				{
					OFFSET 164.317001 41.657999 -73.195000
					CHANNELS 3 Zrotation Yrotation Xrotation
					End Site
					{
						OFFSET 0.000000 0.000000 0.000000
					}
				}
			}
		}
	}
	JOINT joint_18
	{
		OFFSET 6.513000 77.960991 -96.406982
		CHANNELS 3 Zrotation Yrotation Xrotation
		JOINT joint_19
		{
			OFFSET -10.660004 -8.518997 -473.485016
			CHANNELS 3 Zrotation Yrotation Xrotation
			JOINT joint_20
			{
				OFFSET -36.967995 -11.098999 -398.260010
				CHANNELS 3 Zrotation Yrotation Xrotation
				JOINT joint_21
				{
					OFFSET 166.067997 30.363998 -74.785000
					CHANNELS 3 Zrotation Yrotation Xrotation
					End Site
					{
						OFFSET 0.000000 0.000000 0.000000
					}
				}
			}
		}
	}
}
MOTION
Frames: 12
Frame Time: 0.016667
-64.095000 103.725000 1058.776980 -0.659557 1.302112 -0.281781 0.422726 -0.992140 0.433472 0.353414 0.161482 -0.131636 0.379025 -0.204842 0.083074 -0.022299 -0.013048 0.080594 0.000000 0.000000 0.000000 0.205683 0.110306 -0.182424 -0.005909 0.155400 0.171213 -0.020244 -0.085855 -0.101374 0.000000 0.000000 0.000000 -0.634368 0.060487 0.259985 -0.022911 0.132958 -0.177066 -0.058135 -0.126939 -0.206853 0.000000 0.000000 0.000000 0.190758 0.344029 -0.135337 0.179672 -0.377245 -0.052412 0.160539 -0.702059 0.249426 0.000000 0.000000 0.000000 0.010876 0.324739 -0.183077 0.025775 -0.329811 -0.328648 -0.000571 -1.235405 0.225644 0.000000 0.000000 0.000000 
-64.020000 103.479000 1058.896000 -0.634644 1.436414 -0.265662 0.483311 -0.908047 0.328512 0.429025 0.137712 -0.090851 0.447282 -0.191407 0.047739 -0.027674 -0.086243 0.109126 0.000000 0.000000 0.000000 -0.045411 0.088452 -0.021206 -0.008927 0.088963 0.117305 -0.021299 -0.103604 -0.107120 0.000000 0.000000 0.000000 -0.423027 -0.051405 0.277295 -0.047213 -0.015289 -0.188010 -0.064587 -0.101469 -0.230064 0.000000 0.000000 0.000000 0.188605 0.211587 -0.129306 0.179363 -0.394956 -0.067447 0.160077 -0.688835 0.245868 0.000000 0.000000 0.000000 -0.004066 0.177951 -0.186334 0.008105 -0.325703 -0.329808 -0.017407 -1.247520 0.220285 0.000000 0.000000 0.000000 
-63.876000 103.116000 1059.078980 -0.588121 1.630140 -0.245138 0.567578 -0.785950 0.186302 0.534074 0.103204 -0.032591 0.541800 -0.171981 -0.002835 -0.032903 -0.209736 0.143697 0.000000 0.000000 0.000000 -0.395786 0.071535 0.165064 -0.011103 0.012069 0.064042 -0.017119 -0.144268 -0.088245 0.000000 0.000000 0.000000 -0.145329 -0.192351 0.328238 -0.081157 -0.206384 -0.222949 -0.077414 -0.092752 -0.275894 0.000000 0.000000 0.000000 0.179254 0.026529 -0.118681 0.172491 -0.426496 -0.085790 0.153326 -0.671007 0.238344 0.000000 0.000000 0.000000 -0.026654 -0.027861 -0.185611 -0.018001 -0.329364 -0.332188 -0.042696 -1.256494 0.210550 0.000000 0.000000 0.000000 
-63.258000 102.862000 1059.328980 -0.500083 1.874837 -0.233502 0.636525 -0.609963 0.098098 0.617890 0.065139 0.005891 0.617829 -0.133629 -0.037227 -0.032494 -0.534054 0.184396 0.000000 0.000000 0.000000 -0.628697 0.129010 0.221946 -0.020269 0.033331 0.022708 0.021705 -0.311708 0.094525 0.000000 0.000000 0.000000 0.005329 -0.253012 0.392186 -0.087384 -0.294392 -0.252256 -0.112037 -0.284712 -0.397892 0.000000 0.000000 0.000000 0.148600 -0.176199 -0.111580 0.144144 -0.472956 -0.083522 0.127145 -0.637080 0.218089 0.000000 0.000000 0.000000 -0.058245 -0.245415 -0.174281 -0.052117 -0.375377 -0.343655 -0.077957 -1.234526 0.190672 0.000000 0.000000 0.000000 
-61.980000 102.839000 1059.677980 -0.354790 2.191714 -0.240607 0.679630 -0.327489 0.123442 0.663232 0.022392 0.002593 0.661285 -0.063620 -0.038521 -0.020632 -1.219779 0.230538 0.000000 0.000000 0.000000 -0.665387 0.333023 0.023333 -0.049770 0.242446 -0.028692 0.144625 -0.815151 0.675468 0.000000 0.000000 0.000000 -0.084762 -0.160941 0.478525 -0.028794 -0.183689 -0.251184 -0.193921 -0.952019 -0.683594 0.000000 0.000000 0.000000 0.088203 -0.395978 -0.113642 0.085258 -0.560629 -0.039143 0.074524 -0.567661 0.177070 0.000000 0.000000 0.000000 -0.101821 -0.466500 -0.142990 -0.095869 -0.509375 -0.372170 -0.126904 -1.162425 0.155477 0.000000 0.000000 0.000000 
-60.227000 102.925000 1060.093990 -0.168368 2.556080 -0.255534 0.708988 0.016681 0.206558 0.688698 -0.024558 -0.019711 0.687660 0.017594 -0.023883 -0.000723 -2.114070 0.271956 0.000000 0.000000 0.000000 -0.594586 0.615525 -0.280933 -0.091498 0.551581 -0.084755 0.298656 -1.453710 1.408279 0.000000 0.000000 0.000000 -0.302658 0.012488 0.562693 0.060386 0.033085 -0.226880 -0.296725 -1.817796 -1.039868 0.000000 0.000000 0.000000 0.006456 -0.628943 -0.118872 0.004765 -0.664454 0.025878 0.002418 -0.480149 0.122799 0.000000 0.000000 0.000000 -0.154429 -0.694862 -0.100838 -0.147556 -0.686917 -0.410300 -0.185873 -1.057058 0.109702 0.000000 0.000000 0.000000 
-58.149000 102.982000 1060.485960 0.030712 2.897280 -0.262217 0.720106 0.274552 0.271961 0.695970 -0.052305 -0.041927 0.696736 0.067932 -0.009652 0.017084 -2.886537 0.301692 0.000000 0.000000 0.000000 -0.438978 0.834040 -0.453422 -0.114990 0.803524 -0.077836 0.364957 -1.705803 1.728313 0.000000 0.000000 0.000000 -0.504296 0.162654 0.590291 0.109580 0.220345 -0.207803 -0.358392 -2.238241 -1.253739 0.000000 0.000000 0.000000 -0.085808 -0.844235 -0.115601 -0.085365 -0.705388 0.069271 -0.081643 -0.419305 0.069983 0.000000 0.000000 0.000000 -0.208146 -0.908651 -0.066846 -0.201433 -0.806916 -0.444709 -0.245125 -0.945935 0.062758 0.000000 0.000000 0.000000 
-55.704000 102.951000 1060.829960 0.241503 3.218168 -0.253442 0.702360 0.361149 0.279660 0.677735 -0.046387 -0.052509 0.680103 0.077769 -0.001642 0.028616 -3.423225 0.322343 0.000000 0.000000 0.000000 -0.126073 0.917772 -0.378720 -0.097294 0.930896 0.028241 0.285018 -1.232341 1.350568 0.000000 0.000000 0.000000 -0.657735 0.261890 0.538320 0.081130 0.340573 -0.206149 -0.358818 -1.866418 -1.259875 0.000000 0.000000 0.000000 -0.191410 -1.064664 -0.095624 -0.186746 -0.636722 0.070253 -0.181223 -0.399703 0.020737 0.000000 0.000000 0.000000 -0.265003 -1.119275 -0.044456 -0.260114 -0.852629 -0.476019 -0.306943 -0.812073 0.010516 0.000000 0.000000 0.000000 
-52.934000 102.891000 1061.149050 0.465705 3.519732 -0.236302 0.665514 0.353569 0.265617 0.640967 -0.022362 -0.060646 0.645386 0.066804 0.005828 0.037497 -3.835274 0.335644 0.000000 0.000000 0.000000 0.284359 0.929511 -0.181583 -0.056987 0.994374 0.195930 0.122333 -0.352554 0.582115 0.000000 0.000000 0.000000 -0.801868 0.334584 0.427917 0.012811 0.429329 -0.208873 -0.317986 -1.048705 -1.123473 0.000000 0.000000 0.000000 -0.307514 -1.272201 -0.067242 -0.297712 -0.504823 0.049545 -0.292726 -0.406363 -0.027129 0.000000 0.000000 0.000000 -0.323103 -1.320126 -0.030512 -0.321244 -0.839831 -0.502761 -0.369183 -0.673363 -0.042786 0.000000 0.000000 0.000000 
-50.104000 102.834000 1061.432980 0.678849 3.736312 -0.215233 0.633555 0.325041 0.253271 0.608868 0.003118 -0.065810 0.614941 0.052106 0.010742 0.043944 -4.116405 0.341240 0.000000 0.000000 0.000000 0.581968 0.924189 -0.016513 -0.019049 1.028285 0.408804 -0.054595 0.469213 -0.246673 0.000000 0.000000 0.000000 -0.899868 0.354783 0.295189 -0.054577 0.459227 -0.227481 -0.234295 -0.187697 -0.832781 0.000000 0.000000 0.000000 -0.414367 -1.382703 -0.046511 -0.400798 -0.369489 0.028895 -0.397246 -0.439716 -0.065097 0.000000 0.000000 0.000000 -0.367649 -1.470270 -0.036519 -0.370781 -0.715834 -0.508660 -0.414651 -0.609747 -0.074805 0.000000 0.000000 0.000000 
-47.226000 102.820000 1061.663940 0.876194 3.836407 -0.191727 0.615688 0.276524 0.258692 0.589110 0.028404 -0.068796 0.596482 0.033929 0.013193 0.049833 -4.249840 0.331788 0.000000 0.000000 0.000000 0.665526 0.918283 0.047227 0.011643 1.040861 0.733615 -0.254714 1.124594 -1.179967 0.000000 0.000000 0.000000 -0.926032 0.289230 0.144018 -0.117216 0.392441 -0.286409 -0.082337 0.692998 -0.297279 0.000000 0.000000 0.000000 -0.507845 -1.350381 -0.040223 -0.492882 -0.251381 0.014381 -0.491420 -0.510015 -0.089074 0.000000 0.000000 0.000000 -0.384541 -1.543491 -0.081185 -0.395530 -0.452394 -0.470735 -0.427424 -0.662980 -0.070757 0.000000 0.000000 0.000000 
-44.289000 102.809000 1061.859990 1.062438 3.852355 -0.165982 0.603224 0.205491 0.263049 0.574998 0.054304 -0.066494 0.582910 0.014304 0.011952 0.052453 -4.250260 0.319552 0.000000 0.000000 0.000000 0.631330 0.898293 0.075886 0.037249 1.026747 1.108487 -0.472517 1.708763 -2.187395 0.000000 0.000000 0.000000 -0.905035 0.172558 -0.019855 -0.178988 0.267115 -0.371121 0.114693 1.609562 0.402182 0.000000 0.000000 0.000000 -0.592138 -1.221909 -0.040858 -0.577114 -0.129926 -0.000140 -0.578592 -0.605399 -0.103552 0.000000 0.000000 0.000000 -0.387830 -1.566811 -0.145549 -0.408683 -0.077785 -0.409483 -0.423248 -0.788066 -0.045948 0.000000 0.000000 0.000000 
